<svg width="25.717600000000008" height="25.03" viewBox="0.49119999999999775 0.16999999999999887 25.717600000000008 25.03" fill="none" xmlns="http://www.w3.org/2000/svg">
<path d="M27.8779 20.7715C27.8779 20.7715 27.8779 19.9316 27.8779 18.252C27.8779 17.7129 27.9307 17.2598 28.0361 16.8926C28.1455 16.5215 28.3213 16.1953 28.5635 15.9141C28.8213 15.6094 29.1455 15.377 29.5361 15.2168C29.9268 15.0566 30.3623 14.9766 30.8428 14.9766C31.3857 14.9766 31.8721 15.084 32.3018 15.2988C32.7354 15.5137 33.085 15.8223 33.3506 16.2246C33.5225 16.4902 33.6436 16.7734 33.7139 17.0742C33.7842 17.375 33.8193 17.7676 33.8193 18.252V20.7715C33.8193 21.8184 33.6279 22.5977 33.2451 23.1094C32.7412 23.8086 31.9658 24.1582 30.9189 24.1582C30.3057 24.1582 29.7744 24.041 29.3252 23.8066C28.876 23.5684 28.5264 23.2207 28.2764 22.7637C28.0107 22.2676 27.8779 21.6035 27.8779 20.7715ZM32.9463 20.6309V18.457C32.9463 17.957 32.9131 17.5625 32.8467 17.2734C32.7803 16.9844 32.665 16.7344 32.501 16.5234C32.1182 16.0273 31.5693 15.7793 30.8545 15.7793C30.4561 15.7793 30.0967 15.8672 29.7764 16.043C29.4561 16.2188 29.2119 16.459 29.0439 16.7637C28.8525 17.1191 28.7568 17.6836 28.7568 18.457V20.6309C28.7568 21.5137 28.8975 22.1562 29.1787 22.5586C29.5732 23.0859 30.1396 23.3496 30.8779 23.3496C31.3037 23.3496 31.6729 23.2637 31.9854 23.0918C32.3018 22.916 32.5342 22.666 32.6826 22.3418C32.8584 21.9707 32.9463 21.4004 32.9463 20.6309Z" fill="white"></path>
<path d="M8.02814 11.6667V6.33333C8.02814 4.91885 8.59004 3.56229 9.59023 2.5621C10.5904 1.5619 11.947 1 13.3615 1C14.776 1 16.1325 1.5619 17.1327 2.5621C18.1329 3.56229 18.6948 4.91885 18.6948 6.33333V11.6667" stroke="white" stroke-width="1.33333" stroke-linecap="round"></path>
<path d="M2.28682 12.5574C2.48015 10.2361 2.57748 9.07608 3.34282 8.37075C4.10815 7.66541 5.27348 7.66675 7.60282 7.66675H19.1215C21.4495 7.66675 22.6148 7.66675 23.3802 8.37075C24.1455 9.07475 24.2428 10.2361 24.4362 12.5574L25.1215 20.7787C25.2335 22.1294 25.2895 22.8054 24.8948 23.2361C24.4975 23.6667 23.8202 23.6667 22.4628 23.6667H4.26015C2.90415 23.6667 2.22548 23.6667 1.82948 23.2361C1.43348 22.8054 1.48948 22.1294 1.60282 20.7787L2.28682 12.5574Z" stroke="white" stroke-width="1.33333"></path>
</svg>