<svg width="15" height="14" viewBox="0 0 15 14" fill="none" xmlns="http://www.w3.org/2000/svg">
<path d="M4.57227 6.8548V3.9274C4.57227 3.15101 4.88069 2.40641 5.42968 1.85742C5.97868 1.30842 6.72327 1 7.49967 1C8.27606 1 9.02066 1.30842 9.56965 1.85742C10.1186 2.40641 10.4271 3.15101 10.4271 3.9274V6.8548" stroke="black" stroke-width="0.7" stroke-linecap="round"/>
<path d="M1.42115 7.34385C1.52727 6.0697 1.5807 5.43299 2.00078 5.04584C2.42086 4.65869 3.0605 4.65942 4.33904 4.65942H10.6615C11.9393 4.65942 12.5789 4.65942 12.999 5.04584C13.4191 5.43226 13.4725 6.0697 13.5786 7.34385L13.9548 11.8564C14.0163 12.5978 14.047 12.9688 13.8304 13.2052C13.6123 13.4416 13.2405 13.4416 12.4955 13.4416H2.50429C1.76 13.4416 1.38749 13.4416 1.17013 13.2052C0.95277 12.9688 0.983507 12.5978 1.04571 11.8564L1.42115 7.34385Z" stroke="black" stroke-width="0.7"/>
</svg>
