<svg width="135" height="151" viewBox="0 0 135 151" fill="none" xmlns="http://www.w3.org/2000/svg">
<mask id="path-1-inside-1_1_220" fill="white">
<path fill-rule="evenodd" clip-rule="evenodd" d="M3 0C1.34315 0 0 1.34315 0 3V140.881C0 142.538 1.34315 143.881 3 143.881H63.6883L67.2819 149.937C67.6693 150.59 68.6145 150.59 69.0019 149.937L72.5955 143.881H132C133.657 143.881 135 142.538 135 140.881V3C135 1.34315 133.657 0 132 0H3Z"/>
</mask>
<path fill-rule="evenodd" clip-rule="evenodd" d="M3 0C1.34315 0 0 1.34315 0 3V140.881C0 142.538 1.34315 143.881 3 143.881H63.6883L67.2819 149.937C67.6693 150.59 68.6145 150.59 69.0019 149.937L72.5955 143.881H132C133.657 143.881 135 142.538 135 140.881V3C135 1.34315 133.657 0 132 0H3Z" fill="white"/>
<path d="M63.6883 143.881L64.1183 143.626L63.973 143.381H63.6883V143.881ZM67.2819 149.937L67.7119 149.682H67.7119L67.2819 149.937ZM69.0019 149.937L68.5719 149.682H68.5719L69.0019 149.937ZM72.5955 143.881V143.381H72.3108L72.1655 143.626L72.5955 143.881ZM0.5 3C0.5 1.61929 1.61929 0.5 3 0.5V-0.5C1.067 -0.5 -0.5 1.067 -0.5 3H0.5ZM0.5 140.881V3H-0.5V140.881H0.5ZM3 143.381C1.61929 143.381 0.5 142.261 0.5 140.881H-0.5C-0.5 142.814 1.067 144.381 3 144.381V143.381ZM63.6883 143.381H3V144.381H63.6883V143.381ZM67.7119 149.682L64.1183 143.626L63.2583 144.136L66.8519 150.192L67.7119 149.682ZM68.5719 149.682C68.3782 150.009 67.9056 150.009 67.7119 149.682L66.8519 150.192C67.433 151.172 68.8508 151.172 69.4319 150.192L68.5719 149.682ZM72.1655 143.626L68.5719 149.682L69.4319 150.192L73.0255 144.136L72.1655 143.626ZM132 143.381H72.5955V144.381H132V143.381ZM134.5 140.881C134.5 142.261 133.381 143.381 132 143.381V144.381C133.933 144.381 135.5 142.814 135.5 140.881H134.5ZM134.5 3V140.881H135.5V3H134.5ZM132 0.5C133.381 0.5 134.5 1.61929 134.5 3H135.5C135.5 1.067 133.933 -0.5 132 -0.5V0.5ZM3 0.5H132V-0.5H3V0.5Z" fill="black" mask="url(#path-1-inside-1_1_220)"/>
</svg>
