<svg width="50" height="50" viewBox="0 0 50 50" fill="none" xmlns="http://www.w3.org/2000/svg">
<path d="M41.2392 8.2227L36.7833 8.85925L36.7818 8.85947C32.9007 9.42563 29.3517 11.3661 26.7804 14.3278C24.2091 17.2896 22.7862 21.0759 22.7707 24.9981L22.7707 25.0005C22.7734 27.9097 21.7301 30.7229 19.8311 32.9267C17.9325 35.1302 15.305 36.5777 12.428 37.0052C12.4275 37.0053 12.4269 37.0054 12.4264 37.0055L6.03849 37.9124C2.74026 30.9696 5.31213 20.7682 13 12.9779C17.5997 8.39932 23.0989 5.62187 28.2592 4.81701C33.3056 4.02991 37.9903 5.1305 41.2392 8.2227Z" stroke="black"/>
<path d="M8.8714 41.7531L13.0289 41.1616L13.0319 41.1612C16.9107 40.5856 20.4549 38.6389 23.0214 35.6742C25.5876 32.7098 27.0066 28.924 27.021 25.0032C27.0486 22.1148 28.1083 19.3314 30.0086 17.156C31.9092 14.9802 34.5253 13.556 37.3843 13.1406C37.3843 13.1406 37.3844 13.1406 37.3845 13.1406L43.9838 12.1922C47.2543 19.0328 44.6064 29.2483 36.9599 36.8747C32.3601 41.454 26.8603 44.2268 21.6996 45.0266C16.7316 45.7966 12.1137 44.7371 8.8714 41.7531Z" stroke="black"/>
</svg>
