<svg width="50" height="50" viewBox="0 0 50 50" fill="none" xmlns="http://www.w3.org/2000/svg">
<path d="M41.2392 8.2227L36.7833 8.85925L36.7818 8.85947C32.9007 9.42563 29.3517 11.3661 26.7804 14.3278C24.2091 17.2896 22.7862 21.0759 22.7707 24.9981L22.7707 25.0005C22.7734 27.9097 21.7301 30.7229 19.8311 32.9267C17.9325 35.1302 15.305 36.5777 12.428 37.0052C12.4275 37.0053 12.4269 37.0054 12.4264 37.0055L6.03849 37.9124C2.74026 30.9696 5.31213 20.7682 13 12.9779C17.5997 8.39932 23.0989 5.62187 28.2592 4.81701C33.3056 4.02991 37.9903 5.1305 41.2392 8.2227Z" stroke="black"/>
<path d="M26.521 24.9999C26.5074 28.8016 25.1316 32.4726 22.6434 35.3469C20.1551 38.2212 16.7191 40.1086 12.9585 40.6666L7.8335 41.3958L8.146 41.7499C14.9377 48.5416 27.9793 46.5208 37.3127 37.2291C45.1668 29.3958 47.9168 18.7499 44.271 11.6458L37.3127 12.6458C34.3355 13.0782 31.6112 14.5613 29.6321 16.827C27.6529 19.0927 26.5494 21.9916 26.521 24.9999Z" fill="black"/>
</svg>
