<svg width="20" height="20" viewBox="0 0 20 20" fill="none" xmlns="http://www.w3.org/2000/svg">
<path d="M10.1322 14.7694L5.4135 10.0521L6.35749 9.09208L9.4655 12.2001V0.666748H10.7988V12.2001L13.9055 9.09341L14.8508 10.0521L10.1322 14.7694ZM2.9535 19.3334C2.33927 19.3334 1.82683 19.1281 1.41616 18.7174C1.00549 18.3067 0.799717 17.7939 0.798828 17.1787V13.9481H2.13216V17.1787C2.13216 17.3841 2.21749 17.5725 2.38816 17.7441C2.55883 17.9156 2.74683 18.001 2.95216 18.0001H17.3122C17.5166 18.0001 17.7046 17.9147 17.8762 17.7441C18.0477 17.5734 18.1331 17.385 18.1322 17.1787V13.9481H19.4655V17.1787C19.4655 17.793 19.2602 18.3054 18.8495 18.7161C18.4388 19.1267 17.9259 19.3325 17.3108 19.3334H2.9535Z" fill="black"/>
</svg>
