<svg width="17" height="18" viewBox="0 0 17 18" fill="none" xmlns="http://www.w3.org/2000/svg">
<path d="M10.2834 18C10.0995 17.9999 9.9191 17.9494 9.76186 17.854L6.4053 15.8405C6.02764 15.6127 5.71503 15.2915 5.4976 14.9078C5.28018 14.524 5.16527 14.0908 5.16396 13.6498V9.09414C5.1646 8.77261 5.06463 8.45895 4.87804 8.19711L0.191534 1.61084C0.0821011 1.45879 0.0167983 1.27947 0.00283074 1.09266C-0.0111368 0.905845 0.0267737 0.718806 0.112379 0.552177C0.197985 0.385548 0.327958 0.245806 0.487958 0.14837C0.647957 0.0509344 0.831764 -0.000407713 1.0191 8.82197e-06H15.4461C15.6336 -0.000772399 15.8176 0.0503458 15.9778 0.147704C16.138 0.245062 16.2682 0.384862 16.3539 0.551624C16.4395 0.718386 16.4774 0.905605 16.4632 1.09255C16.4491 1.2795 16.3834 1.45888 16.2736 1.61084L11.5871 8.19711C11.4002 8.45883 11.2998 8.7725 11.3002 9.09414V16.9811C11.2999 17.2509 11.1928 17.5096 11.0022 17.7006C10.8116 17.8915 10.5532 17.9992 10.2834 18ZM1.0191 1.01181L5.69754 7.61318C6.0076 8.04453 6.17323 8.56292 6.17072 9.09414V13.6488C6.17109 13.916 6.24053 14.1786 6.3723 14.4111C6.50407 14.6436 6.6937 14.8381 6.92278 14.9757L10.2793 16.9892L10.2934 9.09313C10.2912 8.5618 10.4572 8.0434 10.7676 7.61218L15.4531 1.0259L1.0191 1.01181Z" fill="black"/>
</svg>
