<svg width="30" height="30" viewBox="0 0 30 30" fill="none" xmlns="http://www.w3.org/2000/svg">
<path d="M3 19.8462L9.34954 13.4966C9.60669 13.2395 9.91197 13.0355 10.2479 12.8963C10.5839 12.7571 10.944 12.6855 11.3077 12.6855C11.6714 12.6855 12.0315 12.7571 12.3674 12.8963C12.7034 13.0355 13.0087 13.2395 13.2658 13.4966L19.6154 19.8462M17.7692 18L19.5034 16.2658C19.7605 16.0087 20.0658 15.8047 20.4018 15.6655C20.7378 15.5264 21.0979 15.4547 21.4615 15.4547C21.8252 15.4547 22.1853 15.5264 22.5213 15.6655C22.8573 15.8047 23.1625 16.0087 23.4197 16.2658L27 19.8462M4.84615 24.4615H25.1538C25.6435 24.4615 26.1131 24.267 26.4593 23.9208C26.8055 23.5746 27 23.105 27 22.6154V7.84615C27 7.35652 26.8055 6.88695 26.4593 6.54073C26.1131 6.1945 25.6435 6 25.1538 6H4.84615C4.35652 6 3.88695 6.1945 3.54073 6.54073C3.19451 6.88695 3 7.35652 3 7.84615V22.6154C3 23.105 3.19451 23.5746 3.54073 23.9208C3.88695 24.267 4.35652 24.4615 4.84615 24.4615ZM17.7692 10.6154H17.7791V10.6252H17.7692V10.6154ZM18.2308 10.6154C18.2308 10.7378 18.1821 10.8552 18.0956 10.9417C18.009 11.0283 17.8916 11.0769 17.7692 11.0769C17.6468 11.0769 17.5294 11.0283 17.4429 10.9417C17.3563 10.8552 17.3077 10.7378 17.3077 10.6154C17.3077 10.493 17.3563 10.3756 17.4429 10.289C17.5294 10.2025 17.6468 10.1538 17.7692 10.1538C17.8916 10.1538 18.009 10.2025 18.0956 10.289C18.1821 10.3756 18.2308 10.493 18.2308 10.6154Z" stroke="white" stroke-width="2" stroke-linecap="round" stroke-linejoin="round"/>
</svg>
