<svg width="30" height="30" viewBox="0 0 30 30" fill="none" xmlns="http://www.w3.org/2000/svg">
<rect x="0.5" y="0.5" width="29" height="29" rx="2.5" stroke="black"/>
<path d="M21.9735 24.6819H8.02669C7.3084 24.6819 6.61952 24.3965 6.11161 23.8886C5.6037 23.3807 5.31836 22.6918 5.31836 21.9735V8.02669C5.31836 7.3084 5.6037 6.61952 6.11161 6.11161C6.61952 5.6037 7.3084 5.31836 8.02669 5.31836H21.9735C22.6918 5.31836 23.3807 5.6037 23.8886 6.11161C24.3965 6.61952 24.6819 7.3084 24.6819 8.02669V21.9735C24.6819 22.6918 24.3965 23.3807 23.8886 23.8886C23.3807 24.3965 22.6918 24.6819 21.9735 24.6819ZM8.02669 6.40169C7.59572 6.40169 7.18239 6.5729 6.87764 6.87764C6.5729 7.18239 6.40169 7.59572 6.40169 8.02669V21.9735C6.40169 22.4045 6.5729 22.8178 6.87764 23.1226C7.18239 23.4273 7.59572 23.5985 8.02669 23.5985H21.9735C22.4045 23.5985 22.8178 23.4273 23.1226 23.1226C23.4273 22.8178 23.5985 22.4045 23.5985 21.9735V8.02669C23.5985 7.59572 23.4273 7.18239 23.1226 6.87764C22.8178 6.5729 22.4045 6.40169 21.9735 6.40169H8.02669Z" fill="black"/>
<path d="M14.9998 19.9768C14.0155 19.9758 13.0536 19.6829 12.2356 19.1352C11.4177 18.5875 10.7805 17.8096 10.4046 16.8999C10.0287 15.9901 9.93096 14.9893 10.1237 14.0241C10.3165 13.0588 10.7911 12.1723 11.4876 11.4767C12.1841 10.7811 13.0712 10.3076 14.0368 10.1161C15.0023 9.92461 16.003 10.0237 16.9122 10.4007C17.8215 10.7778 18.5985 11.416 19.1452 12.2347C19.6918 13.0533 19.9834 14.0156 19.9832 15C19.9815 16.3205 19.4557 17.5864 18.5213 18.5195C17.5869 19.4527 16.3204 19.9768 14.9998 19.9768ZM14.9998 11.1C14.23 11.1011 13.4778 11.3303 12.8382 11.7586C12.1985 12.187 11.7002 12.7953 11.4061 13.5067C11.112 14.2181 11.0353 15.0007 11.1858 15.7557C11.3362 16.5107 11.707 17.2041 12.2514 17.7485C12.7957 18.2928 13.4892 18.6636 14.2441 18.8141C14.9991 18.9645 15.7817 18.8878 16.4932 18.5937C17.2046 18.2996 17.8129 17.8013 18.2412 17.1617C18.6696 16.522 18.8988 15.7698 18.8998 15C18.8998 13.9657 18.489 12.9737 17.7576 12.2423C17.0262 11.5109 16.0342 11.1 14.9998 11.1Z" fill="black"/>
<path d="M20.6333 10.5635C21.2765 10.5635 21.7979 10.0421 21.7979 9.39896C21.7979 8.75578 21.2765 8.23438 20.6333 8.23438C19.9902 8.23438 19.4688 8.75578 19.4688 9.39896C19.4688 10.0421 19.9902 10.5635 20.6333 10.5635Z" fill="black"/>
</svg>
