<svg width="11" height="7" viewBox="0 0 11 7" fill="none" xmlns="http://www.w3.org/2000/svg">
<path fill-rule="evenodd" clip-rule="evenodd" d="M0.601719 3.50019C0.601719 3.59302 0.638593 3.68204 0.704231 3.74768C0.769869 3.81332 0.858893 3.85019 0.951719 3.85019L9.20682 3.85019L7.00392 6.05239C6.97138 6.08493 6.94556 6.12357 6.92795 6.16608C6.91034 6.2086 6.90128 6.25417 6.90128 6.30019C6.90128 6.34621 6.91034 6.39178 6.92795 6.4343C6.94556 6.47682 6.97138 6.51545 7.00392 6.54799C7.03646 6.58053 7.07509 6.60635 7.11761 6.62396C7.16013 6.64157 7.2057 6.65064 7.25172 6.65064C7.29774 6.65064 7.34331 6.64157 7.38583 6.62396C7.42834 6.60635 7.46698 6.58053 7.49952 6.54799L10.2995 3.74799C10.3321 3.71548 10.358 3.67686 10.3756 3.63434C10.3933 3.59181 10.4023 3.54623 10.4023 3.50019C10.4023 3.45416 10.3933 3.40857 10.3756 3.36605C10.358 3.32353 10.3321 3.2849 10.2995 3.25239L7.49952 0.452393C7.46698 0.419852 7.42834 0.394038 7.38583 0.376427C7.34331 0.358815 7.29774 0.349751 7.25172 0.349751C7.2057 0.349751 7.16013 0.358815 7.11761 0.376427C7.07509 0.394038 7.03646 0.419852 7.00392 0.452393C6.97138 0.484935 6.94556 0.523567 6.92795 0.566085C6.91034 0.608602 6.90128 0.654173 6.90128 0.700193C6.90128 0.746214 6.91034 0.791784 6.92795 0.834302C6.94556 0.876819 6.97138 0.915452 7.00392 0.947993L9.20682 3.15019L0.951719 3.15019C0.858893 3.15019 0.769869 3.18707 0.704231 3.25271C0.638593 3.31834 0.601719 3.40737 0.601719 3.50019Z" fill="black"/>
</svg>
