<svg width="30" height="30" viewBox="0 0 30 30" fill="none" xmlns="http://www.w3.org/2000/svg">
<path d="M17.0226 26.7088C16.4729 27.219 15.7501 27.5018 15.0001 27.5C14.2505 27.5015 13.5282 27.2187 12.9789 26.7088C8.01511 22.0325 1.36261 16.8088 4.60636 9.225C6.36261 5.125 10.5726 2.5 15.0014 2.5C19.4301 2.5 23.6414 5.125 25.3951 9.225C28.6351 16.8 21.9989 22.0488 17.0226 26.7088Z" stroke="white" stroke-width="2" stroke-linecap="round" stroke-linejoin="round"/>
<path d="M19.375 13.75C19.375 14.3245 19.2618 14.8934 19.042 15.4242C18.8221 15.955 18.4998 16.4373 18.0936 16.8436C17.6873 17.2498 17.205 17.5721 16.6742 17.792C16.1434 18.0118 15.5745 18.125 15 18.125C14.4255 18.125 13.8566 18.0118 13.3258 17.792C12.795 17.5721 12.3127 17.2498 11.9064 16.8436C11.5002 16.4373 11.1779 15.955 10.958 15.4242C10.7382 14.8934 10.625 14.3245 10.625 13.75C10.625 12.5897 11.0859 11.4769 11.9064 10.6564C12.7269 9.83594 13.8397 9.375 15 9.375C16.1603 9.375 17.2731 9.83594 18.0936 10.6564C18.9141 11.4769 19.375 12.5897 19.375 13.75Z" stroke="white" stroke-width="2" stroke-linecap="round" stroke-linejoin="round"/>
</svg>
