<svg width="14" height="14" viewBox="0 0 14 14" fill="none" xmlns="http://www.w3.org/2000/svg">
<circle cx="7" cy="7" r="6.75" transform="rotate(90 7 7)" stroke="black" stroke-width="0.5"/>
<g clip-path="url(#clip0_1_7955)">
<path fill-rule="evenodd" clip-rule="evenodd" d="M7.00032 3.56249C6.93401 3.56249 6.87042 3.59212 6.82354 3.64486C6.77665 3.69761 6.75032 3.76914 6.75032 3.84374L6.75032 10.4773L5.17732 8.70711C5.15407 8.68096 5.12648 8.66022 5.09611 8.64607C5.06574 8.63191 5.03319 8.62463 5.00032 8.62463C4.96744 8.62463 4.93489 8.63191 4.90452 8.64607C4.87415 8.66022 4.84656 8.68096 4.82332 8.70711C4.80007 8.73326 4.78163 8.7643 4.76905 8.79847C4.75647 8.83264 4.75 8.86926 4.75 8.90624C4.75 8.94322 4.75647 8.97984 4.76905 9.014C4.78163 9.04817 4.80007 9.07921 4.82332 9.10536L6.82332 11.3554C6.84654 11.3816 6.87413 11.4023 6.9045 11.4165C6.93487 11.4307 6.96743 11.438 7.00032 11.438C7.0332 11.438 7.06576 11.4307 7.09613 11.4165C7.1265 11.4023 7.15409 11.3816 7.17732 11.3554L9.17732 9.10536C9.20056 9.07921 9.219 9.04817 9.23158 9.014C9.24416 8.97984 9.25063 8.94322 9.25063 8.90624C9.25063 8.86925 9.24416 8.83264 9.23158 8.79847C9.219 8.7643 9.20056 8.73326 9.17732 8.70711C9.15407 8.68096 9.12648 8.66022 9.09611 8.64607C9.06574 8.63191 9.03319 8.62463 9.00032 8.62463C8.96744 8.62463 8.93489 8.63191 8.90452 8.64607C8.87415 8.66022 8.84656 8.68096 8.82332 8.70711L7.25032 10.4773L7.25032 3.84374C7.25032 3.76914 7.22398 3.69761 7.17709 3.64486C7.13021 3.59212 7.06662 3.56249 7.00032 3.56249Z" fill="black"/>
</g>
<defs>
<clipPath id="clip0_1_7955">
<rect width="9" height="8" fill="white" transform="translate(3 12) rotate(-90)"/>
</clipPath>
</defs>
</svg>
