<svg width="51" height="32" viewBox="0 0 51 32" fill="none" xmlns="http://www.w3.org/2000/svg">
<path d="M6.64822 29.6718L6.6511 29.6736C8.59584 30.8927 10.7721 31.5 13.1667 31.5C15.5878 31.5 17.7656 30.8933 19.6851 29.6718C21.6076 28.4484 23.1108 26.6774 24.2012 24.3822C25.3244 22.0486 25.875 19.2486 25.875 16C25.875 12.7526 25.3248 9.96597 24.2011 7.65922C23.1113 5.33765 21.6085 3.55218 19.6851 2.32817C17.7656 1.10666 15.5878 0.5 13.1667 0.5C10.7721 0.5 8.59584 1.10726 6.6511 2.32636L6.65109 2.32635L6.64823 2.32817C4.72414 3.55259 3.22106 5.33883 2.13119 7.66154C1.03611 9.96748 0.5 12.7531 0.5 16C0.5 19.2477 1.03637 22.0464 2.13067 24.379L2.13169 24.3812C3.22213 26.6768 4.72543 28.4482 6.64822 29.6718ZM18.5746 21.6133L18.5745 21.6133L18.5718 21.6208C18.0403 23.0824 17.3124 24.1289 16.412 24.8056C15.5067 25.4582 14.4324 25.7917 13.1667 25.7917C11.9624 25.7917 10.8991 25.4614 9.9605 24.8037C9.05954 24.1257 8.31862 23.078 7.76021 21.6171C7.23209 20.1628 6.95833 18.2963 6.95833 16C6.95833 13.6739 7.2326 11.8087 7.75968 10.3843C8.31925 8.91976 9.06082 7.88765 9.95942 7.23868L9.9614 7.23723C10.9012 6.55141 11.9641 6.20833 13.1667 6.20833C14.4298 6.20833 15.5027 6.5541 16.4083 7.23333L16.4083 7.2334L16.4156 7.23867C17.3122 7.88622 18.0397 8.91606 18.5718 10.3792L18.5717 10.3792L18.5757 10.3896C19.1286 11.8115 19.4167 13.6745 19.4167 16C19.4167 18.2963 19.129 20.1612 18.5746 21.6133ZM31.6037 30.602L31.6036 30.6021L31.6118 30.6045C33.63 31.2014 35.6917 31.5 37.7952 31.5C40.4553 31.5 42.69 31.0761 44.4742 30.1987L44.4772 30.1972C46.2682 29.3017 47.6248 28.117 48.5157 26.6322C49.3962 25.1647 49.8369 23.5617 49.8369 21.8333C49.8369 19.1975 48.878 17.0173 46.9612 15.335C45.7053 14.1981 44.0514 13.4552 42.0262 13.0807L48.5114 5.36334L48.6286 5.22386V5.04167V1.41667V0.916666H48.1286H28.2536H27.7536V1.41667V5.95833V6.45833H28.2536H40.423L34.4958 13.5117L34.3786 13.6511V13.8333V17.5417V18.0417H34.8786H37.5452C39.7312 18.0417 41.2043 18.4284 42.0716 19.103C42.9426 19.7804 43.3786 20.6866 43.3786 21.875C43.3786 23.0781 42.9116 24.0113 41.9586 24.7213C40.9912 25.4143 39.5953 25.7917 37.7119 25.7917C36.1278 25.7917 34.6146 25.5368 33.1695 25.0283C31.7151 24.5166 30.4903 23.8483 29.4863 23.0292L29.0229 22.6512L28.733 23.1742L26.3996 27.3825L26.1939 27.7536L26.5266 28.017C27.9162 29.1172 29.6123 29.9761 31.6037 30.602Z" stroke="black"/>
</svg>
