<svg width="52" height="32" viewBox="0 0 52 32" fill="none" xmlns="http://www.w3.org/2000/svg">
<path d="M45.3856 30.1548C47.1784 29.2581 48.5348 28.0581 49.4248 26.5452C50.3048 25.0492 50.7438 23.4057 50.7438 21.625C50.7438 19.8205 50.3066 18.2009 49.421 16.7818C48.5503 15.3135 47.1674 14.1974 45.3175 13.4161C43.4801 12.6006 41.0847 12.2083 38.1605 12.2083H35.9092L36.4539 6.45833H48.5355H49.0355V5.95833V1.41667V0.916666H48.5355H31.4105H30.9555L30.9127 1.36963L29.4127 17.2446L29.361 17.7917H29.9105H36.9521C38.9305 17.7917 40.4412 17.9713 41.5094 18.31L41.5126 18.311C42.6191 18.6535 43.2997 19.1294 43.656 19.6862L43.6558 19.6863L43.6637 19.6978C44.0744 20.3017 44.2855 21.0073 44.2855 21.8333C44.2855 23.0326 43.808 23.9661 42.8253 24.6785L42.8253 24.6785L42.8205 24.6821C41.8529 25.4016 40.4717 25.7917 38.6188 25.7917C37.0352 25.7917 35.5076 25.5369 34.0335 25.0279C32.5796 24.5162 31.3552 23.848 30.3515 23.0292L29.8846 22.6483L29.5964 23.1775L27.3047 27.3859L27.1033 27.7557L27.4335 28.017C28.8231 29.1172 30.5192 29.9761 32.5106 30.602L32.5105 30.6021L32.5187 30.6045C34.5369 31.2014 36.5986 31.5 38.7021 31.5C41.3634 31.5 43.6 31.0619 45.3856 30.1548ZM45.3856 30.1548C45.3851 30.155 45.3846 30.1553 45.3841 30.1555L45.1605 29.7083M45.3856 30.1548C45.3861 30.1545 45.3865 30.1543 45.387 30.1541L45.1605 29.7083M45.1605 29.7083C43.466 30.5694 41.3133 31 38.7021 31C36.6466 31 34.6327 30.7083 32.6605 30.125M45.1605 29.7083C46.8827 28.8472 48.1605 27.7083 48.9938 26.2917C49.8271 24.875 50.2438 23.3194 50.2438 21.625C50.2438 19.9028 49.8271 18.375 48.9938 17.0417C48.1883 15.6806 46.8966 14.625 45.1188 13.875L32.6605 30.125M32.6605 30.125C30.716 29.5139 29.0771 28.6806 27.7438 27.625L32.6605 30.125ZM6.64822 29.6718L6.6511 29.6736C8.59584 30.8927 10.7721 31.5 13.1667 31.5C15.5878 31.5 17.7656 30.8933 19.6851 29.6718C21.6076 28.4484 23.1108 26.6774 24.2012 24.3822C25.3244 22.0486 25.875 19.2486 25.875 16C25.875 12.7526 25.3248 9.96597 24.2011 7.65922C23.1113 5.33765 21.6085 3.55218 19.6851 2.32817C17.7656 1.10666 15.5878 0.5 13.1667 0.5C10.7721 0.5 8.59584 1.10726 6.6511 2.32636L6.65109 2.32635L6.64823 2.32817C4.72414 3.55259 3.22106 5.33883 2.13119 7.66154C1.03611 9.96748 0.5 12.7531 0.5 16C0.5 19.2477 1.03637 22.0464 2.13067 24.379L2.13169 24.3812C3.22213 26.6768 4.72543 28.4482 6.64822 29.6718ZM18.5746 21.6133L18.5745 21.6133L18.5718 21.6208C18.0403 23.0824 17.3124 24.1289 16.412 24.8056C15.5067 25.4582 14.4324 25.7917 13.1667 25.7917C11.9624 25.7917 10.8991 25.4614 9.9605 24.8037C9.05954 24.1257 8.31862 23.078 7.76021 21.6171C7.23209 20.1628 6.95833 18.2963 6.95833 16C6.95833 13.6739 7.2326 11.8087 7.75968 10.3843C8.31925 8.91976 9.06082 7.88765 9.95942 7.23868L9.9614 7.23723C10.9012 6.55141 11.9641 6.20833 13.1667 6.20833C14.4298 6.20833 15.5027 6.5541 16.4083 7.23333L16.4083 7.2334L16.4156 7.23867C17.3122 7.88622 18.0397 8.91606 18.5718 10.3792L18.5717 10.3792L18.5757 10.3896C19.1286 11.8115 19.4167 13.6745 19.4167 16C19.4167 18.2963 19.129 20.1612 18.5746 21.6133Z" stroke="black"/>
</svg>
