<svg width="52" height="32" viewBox="0 0 52 32" fill="none" xmlns="http://www.w3.org/2000/svg">
<path d="M6.64822 29.6718L6.6511 29.6736C8.59584 30.8927 10.7721 31.5 13.1667 31.5C15.5878 31.5 17.7656 30.8933 19.6851 29.6718C21.6076 28.4484 23.1108 26.6774 24.2012 24.3822C25.3244 22.0486 25.875 19.2486 25.875 16C25.875 12.7526 25.3248 9.96597 24.2011 7.65922C23.1113 5.33765 21.6085 3.55218 19.6851 2.32817C17.7656 1.10666 15.5878 0.5 13.1667 0.5C10.7721 0.5 8.59584 1.10726 6.6511 2.32636L6.65109 2.32635L6.64823 2.32817C4.72414 3.55259 3.22106 5.33883 2.13119 7.66154C1.03611 9.96748 0.5 12.7531 0.5 16C0.5 19.2477 1.03637 22.0464 2.13067 24.379L2.13169 24.3812C3.22213 26.6768 4.72543 28.4482 6.64822 29.6718ZM18.5746 21.6133L18.5745 21.6133L18.5718 21.6208C18.0403 23.0824 17.3124 24.1289 16.412 24.8056C15.5067 25.4582 14.4324 25.7917 13.1667 25.7917C11.9624 25.7917 10.8991 25.4614 9.9605 24.8037C9.05954 24.1257 8.31862 23.078 7.76021 21.6171C7.23209 20.1628 6.95833 18.2963 6.95833 16C6.95833 13.6739 7.2326 11.8087 7.75968 10.3843C8.31925 8.91976 9.06082 7.88765 9.95942 7.23868L9.9614 7.23723C10.9012 6.55141 11.9641 6.20833 13.1667 6.20833C14.4298 6.20833 15.5027 6.5541 16.4083 7.23333L16.4083 7.2334L16.4156 7.23867C17.3122 7.88622 18.0397 8.91606 18.5718 10.3792L18.5717 10.3792L18.5757 10.3896C19.1286 11.8115 19.4167 13.6745 19.4167 16C19.4167 18.2963 19.129 20.1612 18.5746 21.6133ZM28.1198 30.5833V31.0833H28.6198H50.1198H50.6198V30.5833V26V25.5H50.1198H37.6052L44.5058 18.9459L44.5074 18.9443C45.8552 17.6527 46.896 16.4726 47.6174 15.4049C48.3337 14.3448 48.8341 13.3228 49.1022 12.3399L49.1031 12.3363C49.3638 11.3515 49.4948 10.3641 49.4948 9.375C49.4948 7.56702 49.0417 5.97986 48.1171 4.63618C47.2228 3.29619 45.9338 2.28144 44.2771 1.58294C42.6451 0.855332 40.741 0.5 38.5781 0.5C36.1288 0.5 33.8925 0.941618 31.8773 1.83379C29.8893 2.69839 28.2896 3.9306 27.0939 5.5345L26.7996 5.92936L27.1899 6.22965L30.9816 9.14631L31.3679 9.44346L31.6748 9.0649C32.4608 8.09557 33.3833 7.383 34.4438 6.91705C35.5408 6.44722 36.7638 6.20833 38.1198 6.20833C39.8377 6.20833 41.0527 6.57218 41.8448 7.22031L41.8448 7.22038L41.852 7.22608C42.6302 7.83919 43.0365 8.71183 43.0365 9.91667C43.0365 10.3922 42.9613 10.9169 42.8041 11.4934L42.8019 11.5013L42.8001 11.5092C42.6796 12.0149 42.407 12.5977 41.9563 13.2605C41.5128 13.9127 40.8195 14.69 39.8601 15.5945L39.8588 15.5958L28.2755 26.5958L28.1198 26.7436V26.9583V30.5833Z" stroke="black"/>
</svg>
