<svg width="5" height="6" viewBox="0 0 5 6" fill="none" xmlns="http://www.w3.org/2000/svg">
<g clip-path="url(#clip0_1_7572)">
<path fill-rule="evenodd" clip-rule="evenodd" d="M0.399341 2.99942C0.399341 3.0392 0.415145 3.07736 0.443275 3.10549C0.471406 3.13362 0.509559 3.14942 0.549342 3.14942L4.08724 3.14942L3.14314 4.09322C3.12919 4.10717 3.11813 4.12372 3.11058 4.14194C3.10304 4.16017 3.09915 4.1797 3.09915 4.19942C3.09915 4.21914 3.10304 4.23867 3.11058 4.2569C3.11813 4.27512 3.12919 4.29167 3.14314 4.30562C3.15709 4.31957 3.17364 4.33063 3.19187 4.33818C3.21009 4.34572 3.22962 4.34961 3.24934 4.34961C3.26906 4.34961 3.28859 4.34572 3.30682 4.33818C3.32504 4.33063 3.3416 4.31957 3.35554 4.30562L4.55554 3.10562C4.56951 3.09169 4.58059 3.07513 4.58815 3.05691C4.59572 3.03869 4.59961 3.01915 4.59961 2.99942C4.59961 2.97969 4.59572 2.96015 4.58815 2.94193C4.58059 2.92371 4.56951 2.90715 4.55554 2.89322L3.35554 1.69322C3.34159 1.67927 3.32504 1.66821 3.30682 1.66066C3.28859 1.65312 3.26906 1.64923 3.24934 1.64923C3.22962 1.64923 3.21009 1.65312 3.19187 1.66066C3.17364 1.66821 3.15709 1.67927 3.14314 1.69322C3.12919 1.70717 3.11813 1.72372 3.11058 1.74194C3.10304 1.76017 3.09915 1.7797 3.09915 1.79942C3.09915 1.81914 3.10304 1.83867 3.11058 1.8569C3.11813 1.87512 3.12919 1.89167 3.14314 1.90562L4.08724 2.84942L0.549342 2.84942C0.509559 2.84942 0.471406 2.86522 0.443275 2.89335C0.415145 2.92148 0.399341 2.95964 0.399341 2.99942Z" fill="black"/>
</g>
<defs>
<clipPath id="clip0_1_7572">
<rect width="4.8" height="4.8" fill="white" transform="translate(4.89941 5.39941) rotate(180)"/>
</clipPath>
</defs>
</svg>
