<svg width="20" height="23" viewBox="0 0 20 23" fill="none" xmlns="http://www.w3.org/2000/svg">
<path d="M10.0019 1.35294C9.09609 1.35294 8.22742 1.7093 7.58695 2.34361C6.94648 2.97792 6.58666 3.83824 6.58666 4.73529C6.58666 5.63235 6.94648 6.49266 7.58695 7.12698C8.22742 7.76129 9.09609 8.11765 10.0019 8.11765C10.9076 8.11765 11.7763 7.76129 12.4168 7.12698C13.0572 6.49266 13.4171 5.63235 13.4171 4.73529C13.4171 3.83824 13.0572 2.97792 12.4168 2.34361C11.7763 1.7093 10.9076 1.35294 10.0019 1.35294ZM5.22058 4.73529C5.22058 4.11345 5.34425 3.49769 5.58453 2.92318C5.82482 2.34866 6.177 1.82665 6.62099 1.38694C7.06497 0.947222 7.59205 0.598423 8.17214 0.360453C8.75224 0.122482 9.37397 0 10.0019 0C10.6297 0 11.2515 0.122482 11.8316 0.360453C12.4117 0.598423 12.9387 0.947222 13.3827 1.38694C13.8267 1.82665 14.1789 2.34866 14.4192 2.92318C14.6595 3.49769 14.7831 4.11345 14.7831 4.73529C14.7831 5.99117 14.2794 7.19561 13.3827 8.08365C12.4861 8.97169 11.2699 9.47059 10.0019 9.47059C8.73379 9.47059 7.51765 8.97169 6.62099 8.08365C5.72432 7.19561 5.22058 5.99117 5.22058 4.73529ZM6.40907 12.2387C6.09032 12.3199 5.77475 12.411 5.46238 12.512L4.15231 12.9382C3.61717 13.1107 3.13387 13.4126 2.74606 13.8165C2.35825 14.2205 2.07815 14.7137 1.93106 15.2517L1.386 19.1482C1.26305 20.0235 1.73162 20.7446 2.4734 20.9205C3.931 21.2655 6.36809 21.6471 10.0005 21.6471C13.6343 21.6471 16.0727 21.2655 17.5303 20.9205C18.2721 20.7446 18.7393 20.0235 18.6177 19.1482L18.0713 15.2517C17.9242 14.7137 17.6441 14.2205 17.2563 13.8165C16.8685 13.4126 16.3852 13.1107 15.85 12.9382L14.54 12.512C14.2276 12.4101 13.9125 12.319 13.5946 12.2387C13.3479 12.4305 13.0866 12.6033 12.8132 12.7555C11.9573 13.2425 10.989 13.5025 10.0019 13.5105C8.82703 13.5105 7.85711 13.1276 7.19047 12.7555C6.9166 12.6033 6.65628 12.4305 6.40907 12.2387ZM6.79704 10.7572L7.06206 11.0156L7.06889 11.0224L7.10167 11.0522C7.13355 11.081 7.18409 11.1225 7.25331 11.1766C7.38992 11.2849 7.59619 11.431 7.85985 11.5771C8.38852 11.8721 9.1262 12.1575 10.0005 12.1575C10.8748 12.1575 11.6125 11.8734 12.1411 11.5771C12.4099 11.4267 12.6634 11.2509 12.8979 11.0522L12.9321 11.0211L12.9376 11.017L13.2026 10.7572L13.5687 10.8411C14.0386 10.9475 14.504 11.0761 14.9648 11.2267L16.2763 11.6529C17.0364 11.8973 17.7218 12.3282 18.2688 12.9053C18.8157 13.4825 19.2064 14.1872 19.4046 14.9541L19.4141 14.9906L19.9688 18.9628C20.1696 20.3969 19.395 21.8716 17.8459 22.2369C16.2749 22.6076 13.7299 23 10.0005 23C6.2711 23 3.72609 22.6076 2.1551 22.2369C0.605967 21.8716 -0.1686 20.3969 0.0308479 18.9628L0.586842 14.9906L0.596404 14.9541C0.794569 14.1872 1.18528 13.4825 1.73222 12.9053C2.27916 12.3282 2.96457 11.8973 3.72473 11.6529L5.03616 11.2267C5.49698 11.077 5.96236 10.9485 6.43229 10.8411L6.79704 10.7572Z" fill="white"/>
</svg>
